<svg xmlns="http://www.w3.org/2000/svg" viewBox="0 0 512 512">
  <defs><linearGradient id="g" x1="0" y1="0" x2="1" y2="1"><stop stop-color="#ff6b9a"/><stop offset="1" stop-color="#7c4dff"/></linearGradient></defs>
  <rect width="512" height="512" rx="116" fill="url(#g)"/>
  <circle cx="256" cy="256" r="158" fill="none" stroke="white" stroke-opacity=".24" stroke-width="24"/>
  <path d="M324 129v224c0 50-39 79-83 79-42 0-72-25-72-60 0-39 36-65 84-65 12 0 23 2 32 5V177l-131 29v112c0 49-39 78-83 78-42 0-71-25-71-59 0-40 35-66 83-66 12 0 23 2 32 5V166z" fill="white" transform="translate(64 -24) scale(.78)"/>
</svg>
